<svg xmlns="http://www.w3.org/2000/svg" viewBox="0 0 168.33 266"><defs><style>.cls-1{fill:#fff;}.cls-2{fill:#131a1c;}.cls-3{fill:#c99231;}</style></defs><title>Recurso 2</title><g id="Capa_2" data-name="Capa 2"><g id="Capa_1-2" data-name="Capa 1"><polygon class="cls-1" points="0 266 168.33 99 69.67 0 0 0 0 266"/><path class="cls-2" d="M22.75,105.82a4.07,4.07,0,0,1-1.46-.25,3.4,3.4,0,0,1-1.94-1.83,3.62,3.62,0,0,1-.28-1.41v0a3.37,3.37,0,0,1,.28-1.38,3.44,3.44,0,0,1,.75-1.12,3.37,3.37,0,0,1,1.15-.75,3.86,3.86,0,0,1,1.45-.27,4.22,4.22,0,0,1,1.55.26,4.34,4.34,0,0,1,1.2.73l-1.1,1.32a3.09,3.09,0,0,0-.75-.47,2.24,2.24,0,0,0-.89-.17,1.57,1.57,0,0,0-.68.15,1.63,1.63,0,0,0-.54.39,1.9,1.9,0,0,0-.37.59,2,2,0,0,0-.13.73v0a2,2,0,0,0,.13.75,1.71,1.71,0,0,0,.38.59,1.69,1.69,0,0,0,.59.39,1.91,1.91,0,0,0,.74.14,1.88,1.88,0,0,0,1.08-.28v-.82H22.58v-1.37h3.11v3a4.83,4.83,0,0,1-1.28.74A4.35,4.35,0,0,1,22.75,105.82Z"/><path class="cls-2" d="M28.18,98.93h3.2a3.92,3.92,0,0,1,1.32.19,2.34,2.34,0,0,1,.88.54,2.1,2.1,0,0,1,.6,1.58h0a2.13,2.13,0,0,1-.38,1.3,2.4,2.4,0,0,1-1,.78l1.61,2.36H32.24l-1.36-2h-.83v2H28.18Zm3.11,3.24A1.09,1.09,0,0,0,32,102a.69.69,0,0,0,.27-.58v0a.7.7,0,0,0-.28-.6,1.23,1.23,0,0,0-.74-.2H30.05v1.62Z"/><path class="cls-2" d="M39.62,105.81a4.41,4.41,0,0,1-1.31-.18,2.57,2.57,0,0,1-1-.56,2.63,2.63,0,0,1-.63-1,4.09,4.09,0,0,1-.21-1.38V98.93H38.4v3.75a1.54,1.54,0,0,0,.33,1.09,1.19,1.19,0,0,0,.91.35,1.25,1.25,0,0,0,.9-.33,1.48,1.48,0,0,0,.33-1.06v-3.8h1.91v3.74a4,4,0,0,1-.22,1.42,2.61,2.61,0,0,1-.64,1,2.58,2.58,0,0,1-1,.56A4.35,4.35,0,0,1,39.62,105.81Z"/><path class="cls-2" d="M45.34,98.93h2.9a3.83,3.83,0,0,1,1.16.16,2.51,2.51,0,0,1,.89.46,2,2,0,0,1,.56.75,2.29,2.29,0,0,1,.2,1v0a2.32,2.32,0,0,1-.22,1.05,2.06,2.06,0,0,1-.6.77,2.65,2.65,0,0,1-.92.46,4.35,4.35,0,0,1-1.17.16h-.92v1.93H45.34Zm2.77,3.36a1.17,1.17,0,0,0,.78-.24.8.8,0,0,0,.29-.65h0a.8.8,0,0,0-.29-.67,1.24,1.24,0,0,0-.79-.23h-.88v1.8Z"/><path class="cls-2" d="M56.69,105.82a3.86,3.86,0,0,1-1.45-.27,3.94,3.94,0,0,1-1.15-.75,3.51,3.51,0,0,1-.75-1.11,3.31,3.31,0,0,1-.28-1.36v0a3.33,3.33,0,0,1,.28-1.37,3.47,3.47,0,0,1,.76-1.12,3.62,3.62,0,0,1,1.16-.75,3.89,3.89,0,0,1,2.9,0,3.43,3.43,0,0,1,2.18,3.22v0a3.44,3.44,0,0,1-.27,1.36,3.39,3.39,0,0,1-.77,1.12,3.64,3.64,0,0,1-2.61,1Zm0-1.69a1.78,1.78,0,0,0,.7-.14,1.71,1.71,0,0,0,.55-.39,2,2,0,0,0,.34-.58,1.8,1.8,0,0,0,.13-.69v0A1.94,1.94,0,0,0,58,101a1.9,1.9,0,0,0-.56-.4,1.6,1.6,0,0,0-.7-.15,1.64,1.64,0,0,0-.71.15,1.59,1.59,0,0,0-.54.39,1.65,1.65,0,0,0-.35.57,2,2,0,0,0-.12.7v0a1.94,1.94,0,0,0,.48,1.27,1.69,1.69,0,0,0,.55.4A1.64,1.64,0,0,0,56.71,104.13Z"/><path class="cls-2" d="M89.17,98h2.15l1.75,2.84L94.81,98H97v7.33h-2v-4.21L93.07,104h0l-1.86-2.85v4.19h-2Z"/><path class="cls-2" d="M103.66,105.45a4.79,4.79,0,0,1-1.42-.19,2.84,2.84,0,0,1-1.07-.62,2.6,2.6,0,0,1-.67-1,4.25,4.25,0,0,1-.24-1.5V98h2.08v4.07a1.68,1.68,0,0,0,.36,1.18,1.47,1.47,0,0,0,2,0,1.56,1.56,0,0,0,.37-1.15V98h2.07v4.06a4.45,4.45,0,0,1-.24,1.54,2.81,2.81,0,0,1-.7,1,2.77,2.77,0,0,1-1.07.62A4.88,4.88,0,0,1,103.66,105.45Z"/><path class="cls-2" d="M112.51,102.57,109.72,98H112l1.5,2.67L115.06,98h2.28l-2.79,4.55v2.78h-2Z"/><path class="cls-2" d="M122.59,97.93h2l3.12,7.39H125.5L125,104h-2.83l-.52,1.31h-2.14Zm1.78,4.51-.81-2.09-.83,2.09Z"/><path class="cls-3" d="M74.74,73.64,58.08,90.28l16.66,16.63L91.38,90.28Zm0,4.14L81,84l-6.24,6.25L68.49,84Zm0,25L62.16,90.35l4.48-4.46L74.72,94l8.12-8.13,4.39,4.39Z"/></g></g></svg>